<mxfile host="www.draw.io" modified="2019-11-18T12:13:45.061Z" agent="Mozilla/5.0 (Windows NT 10.0; Win64; x64) AppleWebKit/537.36 (KHTML, like Gecko) Chrome/78.0.3904.97 Safari/537.36" etag="V10kYr8wlGol0lONI5-4" version="12.2.6" type="github" pages="1">
  <diagram id="l5Uh_Jkxbw_3MJGxyL1G" name="Page-1">
    <mxGraphModel dx="1536" dy="1993" grid="1" gridSize="10" guides="1" tooltips="1" connect="1" arrows="1" fold="1" page="1" pageScale="1" pageWidth="827" pageHeight="1169" math="0" shadow="0">
      <root>
        <mxCell id="0"/>
        <mxCell id="1" parent="0"/>
        <mxCell id="T2Pn94c-PPf0k7RdbfTk-105" value="&lt;h1&gt;&lt;font style=&quot;font-size: 14px&quot;&gt;aim: consult weather&lt;/font&gt;&lt;/h1&gt;&lt;p&gt;&lt;font size=&quot;3&quot;&gt;1. city (mandatory)&lt;br&gt;&lt;/font&gt;&lt;/p&gt;&lt;p&gt;&lt;font size=&quot;3&quot;&gt;2. date (mandatory)&lt;/font&gt;&lt;/p&gt;" style="text;html=1;strokeColor=none;fillColor=none;spacing=5;spacingTop=-20;whiteSpace=wrap;overflow=hidden;rounded=0;" parent="1" vertex="1">
          <mxGeometry x="229.5" y="115.5" width="250" height="131" as="geometry"/>
        </mxCell>
        <mxCell id="T2Pn94c-PPf0k7RdbfTk-106" style="edgeStyle=orthogonalEdgeStyle;rounded=0;orthogonalLoop=1;jettySize=auto;html=1;exitX=1;exitY=0.5;exitDx=0;exitDy=0;entryX=0;entryY=0.5;entryDx=0;entryDy=0;" parent="1" source="T2Pn94c-PPf0k7RdbfTk-111" target="T2Pn94c-PPf0k7RdbfTk-119" edge="1">
          <mxGeometry relative="1" as="geometry">
            <mxPoint x="972" y="481.5" as="targetPoint"/>
          </mxGeometry>
        </mxCell>
        <mxCell id="T2Pn94c-PPf0k7RdbfTk-107" value="no both1 and 2" style="text;html=1;resizable=0;points=[];align=center;verticalAlign=middle;labelBackgroundColor=#ffffff;" parent="T2Pn94c-PPf0k7RdbfTk-106" vertex="1" connectable="0">
          <mxGeometry x="-0.0701" y="5" relative="1" as="geometry">
            <mxPoint as="offset"/>
          </mxGeometry>
        </mxCell>
        <mxCell id="T2Pn94c-PPf0k7RdbfTk-159" style="edgeStyle=orthogonalEdgeStyle;rounded=0;orthogonalLoop=1;jettySize=auto;html=1;exitX=0.5;exitY=1;exitDx=0;exitDy=0;entryX=0.5;entryY=0;entryDx=0;entryDy=0;" parent="1" source="T2Pn94c-PPf0k7RdbfTk-111" target="T2Pn94c-PPf0k7RdbfTk-163" edge="1">
          <mxGeometry relative="1" as="geometry">
            <mxPoint x="382" y="500" as="targetPoint"/>
            <Array as="points">
              <mxPoint x="591" y="440"/>
              <mxPoint x="987" y="440"/>
            </Array>
          </mxGeometry>
        </mxCell>
        <mxCell id="T2Pn94c-PPf0k7RdbfTk-161" value="if only 2" style="text;html=1;resizable=0;points=[];align=center;verticalAlign=middle;labelBackgroundColor=#ffffff;" parent="T2Pn94c-PPf0k7RdbfTk-159" vertex="1" connectable="0">
          <mxGeometry x="0.6999" relative="1" as="geometry">
            <mxPoint y="44" as="offset"/>
          </mxGeometry>
        </mxCell>
        <mxCell id="T2Pn94c-PPf0k7RdbfTk-111" value="&lt;font style=&quot;font-size: 14px&quot;&gt;slot 1?&lt;br&gt;slot 2?&lt;br&gt;&lt;/font&gt;" style="rhombus;whiteSpace=wrap;html=1;" parent="1" vertex="1">
          <mxGeometry x="513" y="330" width="157" height="60" as="geometry"/>
        </mxCell>
        <mxCell id="T2Pn94c-PPf0k7RdbfTk-112" style="edgeStyle=orthogonalEdgeStyle;rounded=0;orthogonalLoop=1;jettySize=auto;html=1;exitX=1;exitY=0.5;exitDx=0;exitDy=0;entryX=0.75;entryY=0;entryDx=0;entryDy=0;" parent="1" source="T2Pn94c-PPf0k7RdbfTk-113" target="T2Pn94c-PPf0k7RdbfTk-117" edge="1">
          <mxGeometry relative="1" as="geometry">
            <Array as="points">
              <mxPoint x="1210" y="970"/>
              <mxPoint x="1210" y="40"/>
              <mxPoint x="637" y="40"/>
            </Array>
          </mxGeometry>
        </mxCell>
        <mxCell id="T2Pn94c-PPf0k7RdbfTk-113" value="&lt;font style=&quot;font-size: 14px&quot;&gt;&amp;nbsp; &amp;nbsp; robot: show current &lt;br&gt;slots and&amp;nbsp;&lt;/font&gt;&lt;span style=&quot;font-size: 14px&quot;&gt;query &lt;br&gt;new demands&lt;/span&gt;" style="shape=parallelogram;perimeter=parallelogramPerimeter;whiteSpace=wrap;html=1;" parent="1" vertex="1">
          <mxGeometry x="999" y="942.9047328404018" width="182" height="53" as="geometry"/>
        </mxCell>
        <mxCell id="T2Pn94c-PPf0k7RdbfTk-114" value="" style="edgeStyle=orthogonalEdgeStyle;rounded=0;orthogonalLoop=1;jettySize=auto;html=1;" parent="1" source="T2Pn94c-PPf0k7RdbfTk-115" target="T2Pn94c-PPf0k7RdbfTk-117" edge="1">
          <mxGeometry relative="1" as="geometry"/>
        </mxCell>
        <mxCell id="T2Pn94c-PPf0k7RdbfTk-115" value="&lt;span style=&quot;font-size: 14px&quot;&gt;start&lt;/span&gt;" style="strokeWidth=2;html=1;shape=mxgraph.flowchart.terminator;whiteSpace=wrap;" parent="1" vertex="1">
          <mxGeometry x="542" y="-39.481475830078125" width="100" height="60" as="geometry"/>
        </mxCell>
        <mxCell id="T2Pn94c-PPf0k7RdbfTk-116" style="edgeStyle=orthogonalEdgeStyle;rounded=0;orthogonalLoop=1;jettySize=auto;html=1;exitX=0.5;exitY=1;exitDx=0;exitDy=0;entryX=0.5;entryY=0;entryDx=0;entryDy=0;" parent="1" source="T2Pn94c-PPf0k7RdbfTk-117" target="T2Pn94c-PPf0k7RdbfTk-157" edge="1">
          <mxGeometry relative="1" as="geometry"/>
        </mxCell>
        <mxCell id="T2Pn94c-PPf0k7RdbfTk-117" value="&lt;span style=&quot;font-size: 14px&quot;&gt;user: input demands&lt;/span&gt;" style="shape=parallelogram;perimeter=parallelogramPerimeter;whiteSpace=wrap;html=1;" parent="1" vertex="1">
          <mxGeometry x="500.5" y="62.5" width="182" height="53" as="geometry"/>
        </mxCell>
        <mxCell id="T2Pn94c-PPf0k7RdbfTk-118" style="edgeStyle=orthogonalEdgeStyle;rounded=0;orthogonalLoop=1;jettySize=auto;html=1;exitX=0.5;exitY=0;exitDx=0;exitDy=0;entryX=1;entryY=0.5;entryDx=0;entryDy=0;" parent="1" source="T2Pn94c-PPf0k7RdbfTk-119" target="T2Pn94c-PPf0k7RdbfTk-117" edge="1">
          <mxGeometry relative="1" as="geometry">
            <Array as="points">
              <mxPoint x="981" y="89"/>
            </Array>
          </mxGeometry>
        </mxCell>
        <mxCell id="T2Pn94c-PPf0k7RdbfTk-119" value="&lt;span style=&quot;font-size: 14px&quot;&gt;&amp;nbsp; &amp;nbsp; robot:ask 1 and 2 and &lt;br&gt;give example to user&lt;/span&gt;" style="shape=parallelogram;perimeter=parallelogramPerimeter;whiteSpace=wrap;html=1;" parent="1" vertex="1">
          <mxGeometry x="890" y="334" width="182" height="53" as="geometry"/>
        </mxCell>
        <mxCell id="T2Pn94c-PPf0k7RdbfTk-122" value="" style="edgeStyle=orthogonalEdgeStyle;rounded=0;orthogonalLoop=1;jettySize=auto;html=1;" parent="1" source="T2Pn94c-PPf0k7RdbfTk-123" target="T2Pn94c-PPf0k7RdbfTk-125" edge="1">
          <mxGeometry relative="1" as="geometry"/>
        </mxCell>
        <mxCell id="T2Pn94c-PPf0k7RdbfTk-123" value="&lt;span style=&quot;font-size: 14px ; white-space: normal&quot;&gt;&amp;nbsp; &amp;nbsp;robot:output weather information&lt;/span&gt;" style="shape=parallelogram;perimeter=parallelogramPerimeter;whiteSpace=wrap;html=1;" parent="1" vertex="1">
          <mxGeometry x="491.5" y="690" width="200" height="53" as="geometry"/>
        </mxCell>
        <mxCell id="T2Pn94c-PPf0k7RdbfTk-124" value="" style="edgeStyle=orthogonalEdgeStyle;rounded=0;orthogonalLoop=1;jettySize=auto;html=1;" parent="1" source="T2Pn94c-PPf0k7RdbfTk-125" target="T2Pn94c-PPf0k7RdbfTk-134" edge="1">
          <mxGeometry relative="1" as="geometry"/>
        </mxCell>
        <mxCell id="T2Pn94c-PPf0k7RdbfTk-125" value="&lt;span style=&quot;font-size: 14px&quot;&gt;user: input confirm&lt;/span&gt;" style="shape=parallelogram;perimeter=parallelogramPerimeter;whiteSpace=wrap;html=1;" parent="1" vertex="1">
          <mxGeometry x="500.5" y="826.5" width="182" height="53" as="geometry"/>
        </mxCell>
        <mxCell id="T2Pn94c-PPf0k7RdbfTk-126" style="edgeStyle=orthogonalEdgeStyle;rounded=0;orthogonalLoop=1;jettySize=auto;html=1;exitX=1;exitY=0;exitDx=0;exitDy=0;" parent="1" source="T2Pn94c-PPf0k7RdbfTk-134" target="T2Pn94c-PPf0k7RdbfTk-152" edge="1">
          <mxGeometry relative="1" as="geometry">
            <mxPoint x="650" y="940" as="sourcePoint"/>
          </mxGeometry>
        </mxCell>
        <mxCell id="T2Pn94c-PPf0k7RdbfTk-127" value="uncertain" style="text;html=1;resizable=0;points=[];align=center;verticalAlign=middle;labelBackgroundColor=#ffffff;" parent="T2Pn94c-PPf0k7RdbfTk-126" vertex="1" connectable="0">
          <mxGeometry x="-0.3002" relative="1" as="geometry">
            <mxPoint y="-2" as="offset"/>
          </mxGeometry>
        </mxCell>
        <mxCell id="T2Pn94c-PPf0k7RdbfTk-128" value="yes" style="edgeStyle=orthogonalEdgeStyle;rounded=0;orthogonalLoop=1;jettySize=auto;html=1;exitX=0.5;exitY=1;exitDx=0;exitDy=0;entryX=0.5;entryY=0;entryDx=0;entryDy=0;entryPerimeter=0;" parent="1" source="T2Pn94c-PPf0k7RdbfTk-134" target="T2Pn94c-PPf0k7RdbfTk-142" edge="1">
          <mxGeometry relative="1" as="geometry"/>
        </mxCell>
        <mxCell id="T2Pn94c-PPf0k7RdbfTk-129" style="edgeStyle=orthogonalEdgeStyle;rounded=0;orthogonalLoop=1;jettySize=auto;html=1;exitX=1;exitY=0.5;exitDx=0;exitDy=0;entryX=0;entryY=0.5;entryDx=0;entryDy=0;" parent="1" source="T2Pn94c-PPf0k7RdbfTk-134" target="T2Pn94c-PPf0k7RdbfTk-113" edge="1">
          <mxGeometry relative="1" as="geometry"/>
        </mxCell>
        <mxCell id="T2Pn94c-PPf0k7RdbfTk-130" value="just no" style="text;html=1;resizable=0;points=[];align=center;verticalAlign=middle;labelBackgroundColor=#ffffff;" parent="T2Pn94c-PPf0k7RdbfTk-129" vertex="1" connectable="0">
          <mxGeometry x="0.3909" y="-1" relative="1" as="geometry">
            <mxPoint as="offset"/>
          </mxGeometry>
        </mxCell>
        <mxCell id="T2Pn94c-PPf0k7RdbfTk-131" style="edgeStyle=orthogonalEdgeStyle;rounded=0;orthogonalLoop=1;jettySize=auto;html=1;exitX=0;exitY=0.5;exitDx=0;exitDy=0;entryX=0;entryY=0.5;entryDx=0;entryDy=0;" parent="1" source="T2Pn94c-PPf0k7RdbfTk-134" target="T2Pn94c-PPf0k7RdbfTk-153" edge="1">
          <mxGeometry relative="1" as="geometry">
            <mxPoint x="234" y="969.5714285714287" as="targetPoint"/>
            <Array as="points">
              <mxPoint x="149" y="971"/>
              <mxPoint x="149" y="268"/>
            </Array>
          </mxGeometry>
        </mxCell>
        <mxCell id="T2Pn94c-PPf0k7RdbfTk-132" value="&lt;span style=&quot;text-align: left ; background-color: rgb(248 , 249 , 250)&quot;&gt;change demands&lt;/span&gt;" style="text;html=1;resizable=0;points=[];align=center;verticalAlign=middle;labelBackgroundColor=#ffffff;" parent="T2Pn94c-PPf0k7RdbfTk-131" vertex="1" connectable="0">
          <mxGeometry x="-0.0789" relative="1" as="geometry">
            <mxPoint x="186" y="297" as="offset"/>
          </mxGeometry>
        </mxCell>
        <mxCell id="T2Pn94c-PPf0k7RdbfTk-133" value="terminate" style="edgeStyle=orthogonalEdgeStyle;rounded=0;orthogonalLoop=1;jettySize=auto;html=1;exitX=0.5;exitY=1;exitDx=0;exitDy=0;entryX=0.5;entryY=0;entryDx=0;entryDy=0;entryPerimeter=0;" parent="1" source="T2Pn94c-PPf0k7RdbfTk-134" target="T2Pn94c-PPf0k7RdbfTk-154" edge="1">
          <mxGeometry relative="1" as="geometry"/>
        </mxCell>
        <mxCell id="T2Pn94c-PPf0k7RdbfTk-134" value="&lt;font style=&quot;font-size: 14px&quot;&gt;ok?&lt;br&gt;&lt;/font&gt;" style="rhombus;whiteSpace=wrap;html=1;" parent="1" vertex="1">
          <mxGeometry x="513" y="940" width="157" height="60" as="geometry"/>
        </mxCell>
        <mxCell id="T2Pn94c-PPf0k7RdbfTk-135" value="if only 1" style="edgeStyle=orthogonalEdgeStyle;rounded=0;orthogonalLoop=1;jettySize=auto;html=1;exitX=0.5;exitY=1;exitDx=0;exitDy=0;entryX=0.5;entryY=0;entryDx=0;entryDy=0;" parent="1" source="T2Pn94c-PPf0k7RdbfTk-111" target="T2Pn94c-PPf0k7RdbfTk-162" edge="1">
          <mxGeometry x="0.733" relative="1" as="geometry">
            <mxPoint x="513" y="679.5714285714287" as="sourcePoint"/>
            <Array as="points">
              <mxPoint x="591" y="440"/>
              <mxPoint x="760" y="440"/>
            </Array>
            <mxPoint as="offset"/>
            <mxPoint x="122" y="500" as="targetPoint"/>
          </mxGeometry>
        </mxCell>
        <mxCell id="T2Pn94c-PPf0k7RdbfTk-137" value="if 1 and 2" style="edgeStyle=orthogonalEdgeStyle;rounded=0;orthogonalLoop=1;jettySize=auto;html=1;exitX=0;exitY=0.5;exitDx=0;exitDy=0;entryX=0.5;entryY=0;entryDx=0;entryDy=0;" parent="1" source="T2Pn94c-PPf0k7RdbfTk-111" target="T2Pn94c-PPf0k7RdbfTk-141" edge="1">
          <mxGeometry x="0.7184" relative="1" as="geometry">
            <mxPoint as="offset"/>
            <mxPoint x="670.1428571428573" y="679.5714285714287" as="sourcePoint"/>
            <Array as="points">
              <mxPoint x="341" y="360"/>
            </Array>
          </mxGeometry>
        </mxCell>
        <mxCell id="T2Pn94c-PPf0k7RdbfTk-167" style="edgeStyle=orthogonalEdgeStyle;rounded=0;orthogonalLoop=1;jettySize=auto;html=1;exitX=0.5;exitY=1;exitDx=0;exitDy=0;entryX=0.5;entryY=0;entryDx=0;entryDy=0;" parent="1" source="T2Pn94c-PPf0k7RdbfTk-141" target="T2Pn94c-PPf0k7RdbfTk-166" edge="1">
          <mxGeometry relative="1" as="geometry"/>
        </mxCell>
        <mxCell id="T2Pn94c-PPf0k7RdbfTk-141" value="&lt;span style=&quot;font-size: 14px&quot;&gt;search weather info with 1 and 2&lt;/span&gt;" style="rounded=1;whiteSpace=wrap;html=1;" parent="1" vertex="1">
          <mxGeometry x="269" y="470" width="144" height="50" as="geometry"/>
        </mxCell>
        <mxCell id="T2Pn94c-PPf0k7RdbfTk-142" value="&lt;font style=&quot;font-size: 14px&quot;&gt;stop&lt;/font&gt;" style="strokeWidth=2;html=1;shape=mxgraph.flowchart.terminator;whiteSpace=wrap;" parent="1" vertex="1">
          <mxGeometry x="429.5" y="1070" width="100" height="60" as="geometry"/>
        </mxCell>
        <mxCell id="T2Pn94c-PPf0k7RdbfTk-143" style="edgeStyle=orthogonalEdgeStyle;rounded=0;orthogonalLoop=1;jettySize=auto;html=1;exitX=0.5;exitY=1;exitDx=0;exitDy=0;entryX=0.5;entryY=0;entryDx=0;entryDy=0;" parent="1" source="T2Pn94c-PPf0k7RdbfTk-153" target="T2Pn94c-PPf0k7RdbfTk-111" edge="1">
          <mxGeometry relative="1" as="geometry">
            <mxPoint x="591.5714285714287" y="296.7142857142858" as="sourcePoint"/>
          </mxGeometry>
        </mxCell>
        <mxCell id="T2Pn94c-PPf0k7RdbfTk-151" value="" style="edgeStyle=orthogonalEdgeStyle;rounded=0;orthogonalLoop=1;jettySize=auto;html=1;entryX=1;entryY=0.5;entryDx=0;entryDy=0;" parent="1" source="T2Pn94c-PPf0k7RdbfTk-152" target="T2Pn94c-PPf0k7RdbfTk-125" edge="1">
          <mxGeometry relative="1" as="geometry">
            <mxPoint x="706.8" y="853.5000000000002" as="targetPoint"/>
          </mxGeometry>
        </mxCell>
        <mxCell id="T2Pn94c-PPf0k7RdbfTk-152" value="&lt;span style=&quot;font-size: 14px&quot;&gt;&amp;nbsp; &amp;nbsp;robot:give example answers(yes or no or change)&lt;/span&gt;" style="shape=parallelogram;perimeter=parallelogramPerimeter;whiteSpace=wrap;html=1;" parent="1" vertex="1">
          <mxGeometry x="805" y="828" width="182" height="50" as="geometry"/>
        </mxCell>
        <mxCell id="T2Pn94c-PPf0k7RdbfTk-153" value="&lt;font style=&quot;font-size: 14px&quot;&gt;extract values and update slots&lt;/font&gt;" style="rounded=1;whiteSpace=wrap;html=1;" parent="1" vertex="1">
          <mxGeometry x="519" y="240" width="144" height="56" as="geometry"/>
        </mxCell>
        <mxCell id="T2Pn94c-PPf0k7RdbfTk-154" value="&lt;font style=&quot;font-size: 14px&quot;&gt;stop&lt;/font&gt;" style="strokeWidth=2;html=1;shape=mxgraph.flowchart.terminator;whiteSpace=wrap;" parent="1" vertex="1">
          <mxGeometry x="658" y="1070" width="100" height="60" as="geometry"/>
        </mxCell>
        <mxCell id="T2Pn94c-PPf0k7RdbfTk-155" value="no" style="edgeStyle=orthogonalEdgeStyle;rounded=0;orthogonalLoop=1;jettySize=auto;html=1;exitX=0.5;exitY=1;exitDx=0;exitDy=0;entryX=0.5;entryY=0;entryDx=0;entryDy=0;" parent="1" source="T2Pn94c-PPf0k7RdbfTk-157" target="T2Pn94c-PPf0k7RdbfTk-153" edge="1">
          <mxGeometry relative="1" as="geometry"/>
        </mxCell>
        <mxCell id="T2Pn94c-PPf0k7RdbfTk-156" value="yes" style="edgeStyle=orthogonalEdgeStyle;rounded=0;orthogonalLoop=1;jettySize=auto;html=1;exitX=1;exitY=0.5;exitDx=0;exitDy=0;entryX=0;entryY=0.5;entryDx=0;entryDy=0;entryPerimeter=0;" parent="1" source="T2Pn94c-PPf0k7RdbfTk-157" target="T2Pn94c-PPf0k7RdbfTk-158" edge="1">
          <mxGeometry relative="1" as="geometry"/>
        </mxCell>
        <mxCell id="T2Pn94c-PPf0k7RdbfTk-157" value="&lt;font style=&quot;font-size: 14px&quot;&gt;terminate ?&lt;br&gt;&lt;/font&gt;" style="rhombus;whiteSpace=wrap;html=1;" parent="1" vertex="1">
          <mxGeometry x="512.5" y="142.5" width="157" height="60" as="geometry"/>
        </mxCell>
        <mxCell id="T2Pn94c-PPf0k7RdbfTk-158" value="&lt;font style=&quot;font-size: 14px&quot;&gt;stop&lt;/font&gt;" style="strokeWidth=2;html=1;shape=mxgraph.flowchart.terminator;whiteSpace=wrap;" parent="1" vertex="1">
          <mxGeometry x="758" y="142.45974205280174" width="100" height="60" as="geometry"/>
        </mxCell>
        <mxCell id="T2Pn94c-PPf0k7RdbfTk-165" style="edgeStyle=orthogonalEdgeStyle;rounded=0;orthogonalLoop=1;jettySize=auto;html=1;exitX=0.5;exitY=1;exitDx=0;exitDy=0;entryX=1;entryY=0.5;entryDx=0;entryDy=0;" parent="1" source="T2Pn94c-PPf0k7RdbfTk-162" target="T2Pn94c-PPf0k7RdbfTk-117" edge="1">
          <mxGeometry relative="1" as="geometry">
            <Array as="points">
              <mxPoint x="760" y="650"/>
              <mxPoint x="1150" y="650"/>
              <mxPoint x="1150" y="89"/>
            </Array>
          </mxGeometry>
        </mxCell>
        <mxCell id="T2Pn94c-PPf0k7RdbfTk-162" value="&lt;span style=&quot;font-size: 14px ; white-space: normal&quot;&gt;robot: ask 2&lt;/span&gt;" style="shape=parallelogram;perimeter=parallelogramPerimeter;whiteSpace=wrap;html=1;" parent="1" vertex="1">
          <mxGeometry x="669.5" y="531.5" width="180" height="53" as="geometry"/>
        </mxCell>
        <mxCell id="T2Pn94c-PPf0k7RdbfTk-164" style="edgeStyle=orthogonalEdgeStyle;rounded=0;orthogonalLoop=1;jettySize=auto;html=1;exitX=0.5;exitY=1;exitDx=0;exitDy=0;entryX=1;entryY=0.5;entryDx=0;entryDy=0;" parent="1" source="T2Pn94c-PPf0k7RdbfTk-163" target="T2Pn94c-PPf0k7RdbfTk-117" edge="1">
          <mxGeometry relative="1" as="geometry">
            <mxPoint x="664" y="90" as="targetPoint"/>
            <Array as="points">
              <mxPoint x="986" y="650"/>
              <mxPoint x="1150" y="650"/>
              <mxPoint x="1150" y="89"/>
            </Array>
          </mxGeometry>
        </mxCell>
        <mxCell id="T2Pn94c-PPf0k7RdbfTk-163" value="&lt;span style=&quot;font-size: 14px ; white-space: normal&quot;&gt;robot: ask 1&lt;/span&gt;" style="shape=parallelogram;perimeter=parallelogramPerimeter;whiteSpace=wrap;html=1;" parent="1" vertex="1">
          <mxGeometry x="896" y="531.5" width="180" height="53" as="geometry"/>
        </mxCell>
        <mxCell id="T2Pn94c-PPf0k7RdbfTk-168" style="edgeStyle=orthogonalEdgeStyle;rounded=0;orthogonalLoop=1;jettySize=auto;html=1;exitX=1;exitY=0.5;exitDx=0;exitDy=0;entryX=0.5;entryY=0;entryDx=0;entryDy=0;" parent="1" source="T2Pn94c-PPf0k7RdbfTk-166" target="T2Pn94c-PPf0k7RdbfTk-123" edge="1">
          <mxGeometry relative="1" as="geometry"/>
        </mxCell>
        <mxCell id="T2Pn94c-PPf0k7RdbfTk-169" value="Y" style="text;html=1;resizable=0;points=[];align=center;verticalAlign=middle;labelBackgroundColor=#ffffff;" parent="T2Pn94c-PPf0k7RdbfTk-168" vertex="1" connectable="0">
          <mxGeometry x="-0.4211" y="4" relative="1" as="geometry">
            <mxPoint as="offset"/>
          </mxGeometry>
        </mxCell>
        <mxCell id="T2Pn94c-PPf0k7RdbfTk-171" value="N" style="edgeStyle=orthogonalEdgeStyle;rounded=0;orthogonalLoop=1;jettySize=auto;html=1;exitX=0.5;exitY=1;exitDx=0;exitDy=0;" parent="1" source="T2Pn94c-PPf0k7RdbfTk-166" target="T2Pn94c-PPf0k7RdbfTk-170" edge="1">
          <mxGeometry relative="1" as="geometry"/>
        </mxCell>
        <mxCell id="T2Pn94c-PPf0k7RdbfTk-166" value="&lt;font style=&quot;font-size: 14px&quot;&gt;search result?&lt;br&gt;&lt;/font&gt;" style="rhombus;whiteSpace=wrap;html=1;" parent="1" vertex="1">
          <mxGeometry x="262.5" y="584" width="157" height="60" as="geometry"/>
        </mxCell>
        <mxCell id="T2Pn94c-PPf0k7RdbfTk-172" style="edgeStyle=orthogonalEdgeStyle;rounded=0;orthogonalLoop=1;jettySize=auto;html=1;exitX=0.5;exitY=1;exitDx=0;exitDy=0;entryX=0;entryY=0.5;entryDx=0;entryDy=0;" parent="1" source="T2Pn94c-PPf0k7RdbfTk-170" target="T2Pn94c-PPf0k7RdbfTk-125" edge="1">
          <mxGeometry relative="1" as="geometry">
            <Array as="points">
              <mxPoint x="341" y="853"/>
            </Array>
          </mxGeometry>
        </mxCell>
        <mxCell id="T2Pn94c-PPf0k7RdbfTk-170" value="&lt;span style=&quot;font-size: 14px ; white-space: normal&quot;&gt;&amp;nbsp; &amp;nbsp;robot:output current slot values&lt;/span&gt;" style="shape=parallelogram;perimeter=parallelogramPerimeter;whiteSpace=wrap;html=1;" parent="1" vertex="1">
          <mxGeometry x="241" y="690" width="200" height="53" as="geometry"/>
        </mxCell>
      </root>
    </mxGraphModel>
  </diagram>
</mxfile>
